<svg xmlns="http://www.w3.org/2000/svg" viewBox="0 0 32 32" fill="none">
  <rect width="32" height="32" rx="8" fill="#006b5f"/>
  <path d="M16 7c-.5 0-1 .3-1.4.7L8.4 14H6a2 2 0 0 0-2 2v4a2 2 0 0 0 2 2h2.4l6.2 6.3A2 2 0 0 0 18 27V8a2 2 0 0 0-2-1z" fill="white"/>
  <path d="M21 12a1 1 0 0 1 1.4 0 8 8 0 0 1 0 11.3 1 1 0 0 1-1.4-1.4 6 6 0 0 0 0-8.5 1 1 0 0 1 0-1.4z" fill="#59dbc7"/>
  <path d="M24 9a1 1 0 0 1 1.4 0 12 12 0 0 1 0 17A1 1 0 0 1 24 24.6a10 10 0 0 0 0-14.2A1 1 0 0 1 24 9z" fill="#59dbc7" opacity=".5"/>
</svg>